RobotoSerifText-Black.ufo
<glyph name="eight" format="1">
  <advance width="560"/>
  <unicode hex="0038"/>
  <outline>
    <contour>
      <point x="280" y="80" type="curve" smooth="yes"/>
      <point x="237" y="80"/>
      <point x="212" y="121"/>
      <point x="212" y="206" type="curve" smooth="yes"/>
      <point x="212" y="297"/>
      <point x="236" y="334"/>
      <point x="280" y="334" type="curve" smooth="yes"/>
      <point x="324" y="334"/>
      <point x="348" y="297"/>
      <point x="348" y="206" type="curve" smooth="yes"/>
      <point x="348" y="121"/>
      <point x="323" y="80"/>
    </contour>
    <contour>
      <point x="280" y="-10" type="curve" smooth="yes"/>
      <point x="444" y="-10"/>
      <point x="545" y="76"/>
      <point x="545" y="200" type="curve" smooth="yes"/>
      <point x="545" y="324"/>
      <point x="439" y="396"/>
      <point x="280" y="396" type="curve" smooth="yes"/>
      <point x="121" y="396"/>
      <point x="15" y="324"/>
      <point x="15" y="200" type="curve" smooth="yes"/>
      <point x="15" y="75"/>
      <point x="116" y="-10"/>
    </contour>
    <contour>
      <point x="280" y="419" type="curve" smooth="yes"/>
      <point x="244" y="419"/>
      <point x="224" y="448"/>
      <point x="224" y="526" type="curve" smooth="yes"/>
      <point x="224" y="600"/>
      <point x="244" y="630"/>
      <point x="280" y="630" type="curve" smooth="yes"/>
      <point x="316" y="630"/>
      <point x="337" y="600"/>
      <point x="337" y="526" type="curve" smooth="yes"/>
      <point x="337" y="448"/>
      <point x="316" y="419"/>
    </contour>
    <contour>
      <point x="280" y="362" type="curve" smooth="yes"/>
      <point x="426" y="362"/>
      <point x="517" y="428"/>
      <point x="517" y="539" type="curve" smooth="yes"/>
      <point x="517" y="646"/>
      <point x="425" y="720"/>
      <point x="280" y="720" type="curve" smooth="yes"/>
      <point x="135" y="720"/>
      <point x="44" y="646"/>
      <point x="44" y="539" type="curve" smooth="yes"/>
      <point x="44" y="428"/>
      <point x="134" y="362"/>
    </contour>
  </outline>
</glyph>
<glyph name="nine" format="1">
  <advance width="560"/>
  <unicode hex="0039"/>
  <outline>
    <contour>
      <point x="72" y="-20" type="line"/>
      <point x="240" y="0"/>
      <point x="347" y="109"/>
      <point x="347" y="336" type="curve" smooth="yes"/>
      <point x="347" y="492"/>
      <point x="322" y="537"/>
      <point x="279" y="537" type="curve" smooth="yes"/>
      <point x="237" y="537"/>
      <point x="216" y="491"/>
      <point x="216" y="393" type="curve" smooth="yes"/>
      <point x="216" y="310"/>
      <point x="230" y="260"/>
      <point x="279" y="260" type="curve" smooth="yes"/>
      <point x="322" y="260"/>
      <point x="353" y="298"/>
      <point x="378" y="353" type="curve"/>
      <point x="384" y="283" type="line"/>
      <point x="366" y="231"/>
      <point x="318" y="177"/>
      <point x="225" y="177" type="curve" smooth="yes"/>
      <point x="106" y="177"/>
      <point x="21" y="251"/>
      <point x="21" y="388" type="curve" smooth="yes"/>
      <point x="21" y="530"/>
      <point x="123" y="619"/>
      <point x="275" y="619" type="curve" smooth="yes"/>
      <point x="441" y="619"/>
      <point x="540" y="529"/>
      <point x="540" y="328" type="curve" smooth="yes"/>
      <point x="540" y="89"/>
      <point x="359" y="-77"/>
      <point x="85" y="-103" type="curve"/>
    </contour>
  </outline>
</glyph>
<glyph name="C" format="1">
  <advance width="696"/>
  <unicode hex="0043"/>
  <outline>
    <contour>
      <point x="411" y="630" type="curve" smooth="yes"/>
      <point x="489" y="630"/>
      <point x="530" y="571"/>
      <point x="558" y="483" type="curve"/>
      <point x="661" y="483" type="line"/>
      <point x="661" y="710" type="line"/>
      <point x="574" y="710" type="line"/>
      <point x="554" y="536" type="line"/>
      <point x="561" y="539"/>
      <point x="594" y="551"/>
      <point x="612" y="525" type="curve"/>
      <point x="578" y="638"/>
      <point x="521" y="720"/>
      <point x="379" y="720" type="curve" smooth="yes"/>
      <point x="191" y="720"/>
      <point x="33" y="574"/>
      <point x="33" y="355" type="curve" smooth="yes"/>
      <point x="33" y="137"/>
      <point x="183" y="-10"/>
      <point x="394" y="-10" type="curve" smooth="yes"/>
      <point x="555" y="-10"/>
      <point x="641" y="90"/>
      <point x="670" y="236" type="curve"/>
      <point x="592" y="267" type="line"/>
      <point x="571" y="157"/>
      <point x="512" y="81"/>
      <point x="423" y="81" type="curve" smooth="yes"/>
      <point x="315" y="81"/>
      <point x="260" y="182"/>
      <point x="260" y="355" type="curve" smooth="yes"/>
      <point x="260" y="521"/>
      <point x="314" y="630"/>
    </contour>
    <contour>
      <point x="379" y="741" type="move" name="top"/>
    </contour>
    <contour>
      <point x="379" y="0" type="move" name="bottom"/>
    </contour>
  </outline>
</glyph>
<glyph name="K" format="1">
  <advance width="801"/>
  <unicode hex="004B"/>
  <outline>
    <contour>
      <point x="28" y="0" type="line"/>
      <point x="368" y="0" type="line"/>
      <point x="368" y="73" type="line"/>
      <point x="359" y="73" type="line" smooth="yes"/>
      <point x="336" y="73"/>
      <point x="310" y="76"/>
      <point x="310" y="83" type="curve" smooth="yes"/>
      <point x="310" y="627" type="line" smooth="yes"/>
      <point x="310" y="634"/>
      <point x="345" y="637"/>
      <point x="377" y="637" type="curve" smooth="yes"/>
      <point x="387" y="637" type="line"/>
      <point x="387" y="710" type="line"/>
      <point x="28" y="710" type="line"/>
      <point x="28" y="637" type="line"/>
      <point x="38" y="637" type="line" smooth="yes"/>
      <point x="69" y="637"/>
      <point x="92" y="630"/>
      <point x="92" y="601" type="curve" smooth="yes"/>
      <point x="92" y="109" type="line" smooth="yes"/>
      <point x="92" y="80"/>
      <point x="69" y="73"/>
      <point x="38" y="73" type="curve" smooth="yes"/>
      <point x="28" y="73" type="line"/>
    </contour>
    <contour>
      <point x="431" y="0" type="line"/>
      <point x="786" y="0" type="line"/>
      <point x="786" y="73" type="line"/>
      <point x="776" y="73" type="line" smooth="yes"/>
      <point x="749" y="73"/>
      <point x="735" y="81"/>
      <point x="719" y="106" type="curve" smooth="yes"/>
      <point x="497" y="465" type="line"/>
      <point x="438" y="352" type="line"/>
      <point x="652" y="601" type="line" smooth="yes"/>
      <point x="677" y="630"/>
      <point x="694" y="637"/>
      <point x="727" y="637" type="curve" smooth="yes"/>
      <point x="747" y="637" type="line"/>
      <point x="747" y="710" type="line"/>
      <point x="484" y="710" type="line"/>
      <point x="484" y="637" type="line"/>
      <point x="494" y="637" type="line" smooth="yes"/>
      <point x="525" y="637"/>
      <point x="565" y="635"/>
      <point x="565" y="628" type="curve"/>
      <point x="336" y="363" type="line"/>
      <point x="336" y="334" type="line"/>
      <point x="488" y="83" type="line"/>
      <point x="488" y="76"/>
      <point x="462" y="73"/>
      <point x="439" y="73" type="curve" smooth="yes"/>
      <point x="431" y="73" type="line"/>
    </contour>
    <contour>
      <point x="375" y="741" type="move" name="top"/>
    </contour>
    <contour>
      <point x="375" y="0" type="move" name="bottom"/>
    </contour>
  </outline>
</glyph>
<glyph name="Y" format="1">
  <advance width="697"/>
  <unicode hex="0059"/>
  <outline>
    <contour>
      <point x="241" y="324" type="line"/>
      <point x="241" y="109" type="line" smooth="yes"/>
      <point x="241" y="80"/>
      <point x="218" y="73"/>
      <point x="188" y="73" type="curve" smooth="yes"/>
      <point x="174" y="73" type="line"/>
      <point x="174" y="0" type="line"/>
      <point x="526" y="0" type="line"/>
      <point x="526" y="73" type="line"/>
      <point x="512" y="73" type="line" smooth="yes"/>
      <point x="482" y="73"/>
      <point x="459" y="80"/>
      <point x="459" y="109" type="curve" smooth="yes"/>
      <point x="459" y="324" type="line"/>
      <point x="449" y="277" type="line"/>
      <point x="622" y="596" type="line" smooth="yes"/>
      <point x="640" y="631"/>
      <point x="659" y="637"/>
      <point x="683" y="637" type="curve" smooth="yes"/>
      <point x="688" y="637" type="line"/>
      <point x="688" y="710" type="line"/>
      <point x="472" y="710" type="line"/>
      <point x="472" y="637" type="line"/>
      <point x="484" y="637" type="line" smooth="yes"/>
      <point x="513" y="637"/>
      <point x="540" y="630"/>
      <point x="540" y="619" type="curve"/>
      <point x="386" y="332" type="line"/>
      <point x="437" y="347" type="line"/>
      <point x="282" y="627" type="line"/>
      <point x="282" y="634"/>
      <point x="308" y="637"/>
      <point x="334" y="637" type="curve" smooth="yes"/>
      <point x="350" y="637" type="line"/>
      <point x="350" y="710" type="line"/>
      <point x="9" y="710" type="line"/>
      <point x="9" y="637" type="line"/>
      <point x="14" y="637" type="line" smooth="yes"/>
      <point x="38" y="637"/>
      <point x="52" y="637"/>
      <point x="67" y="611" type="curve" smooth="yes"/>
      <point x="254" y="279" type="line"/>
    </contour>
    <contour>
      <point x="345" y="741" type="move" name="top"/>
    </contour>
    <contour>
      <point x="345" y="0" type="move" name="bottom"/>
    </contour>
  </outline>
</glyph>
<glyph name="b" format="1">
  <advance width="679"/>
  <unicode hex="0062"/>
  <outline>
    <contour>
      <point x="436" y="261" type="curve" smooth="yes"/>
      <point x="436" y="154"/>
      <point x="411" y="87"/>
      <point x="351" y="87" type="curve" smooth="yes"/>
      <point x="298" y="87"/>
      <point x="271" y="135"/>
      <point x="244" y="204" type="curve"/>
      <point x="194" y="155" type="line"/>
      <point x="240" y="38"/>
      <point x="300" y="-13"/>
      <point x="412" y="-13" type="curve" smooth="yes"/>
      <point x="550" y="-13"/>
      <point x="647" y="100"/>
      <point x="647" y="261" type="curve" smooth="yes"/>
      <point x="647" y="419"/>
      <point x="558" y="523"/>
      <point x="420" y="523" type="curve" smooth="yes"/>
      <point x="319" y="523"/>
      <point x="271" y="464"/>
      <point x="212" y="348" type="curve"/>
      <point x="245" y="295" type="line"/>
      <point x="278" y="373"/>
      <point x="308" y="422"/>
      <point x="358" y="422" type="curve" smooth="yes"/>
      <point x="411" y="422"/>
      <point x="436" y="366"/>
    </contour>
    <contour>
      <point x="63" y="627" type="curve" smooth="yes"/>
      <point x="63" y="-1" type="line"/>
      <point x="185" y="-1" type="line"/>
      <point x="245" y="105" type="line"/>
      <point x="269" y="112" type="line"/>
      <point x="269" y="731" type="line"/>
      <point x="16" y="731" type="line"/>
      <point x="16" y="660" type="line"/>
      <point x="24" y="658" type="line" smooth="yes"/>
      <point x="52" y="651"/>
      <point x="63" y="646"/>
    </contour>
  </outline>
</glyph>
<glyph name="j" format="1">
  <advance width="318"/>
  <unicode hex="006A"/>
  <outline>
    <contour>
      <point x="64" y="-29" type="line" smooth="yes"/>
      <point x="64" y="-120"/>
      <point x="38" y="-149"/>
      <point x="-10" y="-149" type="curve" smooth="yes"/>
      <point x="-40" y="-149"/>
      <point x="-64" y="-140"/>
      <point x="-85" y="-132" type="curve"/>
      <point x="-85" y="-221" type="line"/>
      <point x="-69" y="-228"/>
      <point x="-24" y="-236"/>
      <point x="28" y="-236" type="curve" smooth="yes"/>
      <point x="186" y="-236"/>
      <point x="269" y="-175"/>
      <point x="269" y="-5" type="curve" smooth="yes"/>
      <point x="269" y="513" type="line"/>
      <point x="7" y="513" type="line"/>
      <point x="7" y="441" type="line"/>
      <point x="16" y="439" type="line" smooth="yes"/>
      <point x="45" y="433"/>
      <point x="64" y="428"/>
      <point x="64" y="408" type="curve" smooth="yes"/>
    </contour>
    <contour>
      <point x="164" y="572" type="curve" smooth="yes"/>
      <point x="231" y="572"/>
      <point x="272" y="605"/>
      <point x="272" y="660" type="curve" smooth="yes"/>
      <point x="272" y="715"/>
      <point x="231" y="748"/>
      <point x="164" y="748" type="curve" smooth="yes"/>
      <point x="96" y="748"/>
      <point x="56" y="715"/>
      <point x="56" y="660" type="curve" smooth="yes"/>
      <point x="56" y="604"/>
      <point x="96" y="572"/>
    </contour>
    <contour>
      <point x="159" y="551" type="move" name="top"/>
    </contour>
  </outline>
</glyph>
<glyph name="n" format="1">
  <advance width="677"/>
  <unicode hex="006E"/>
  <outline>
    <contour>
      <point x="22" y="0" type="line"/>
      <point x="315" y="0" type="line"/>
      <point x="315" y="68" type="line"/>
      <point x="312" y="68" type="line" smooth="yes"/>
      <point x="298" y="68"/>
      <point x="274" y="71"/>
      <point x="274" y="77" type="curve" smooth="yes"/>
      <point x="274" y="403" type="line"/>
      <point x="261" y="401" type="line"/>
      <point x="261" y="513" type="line"/>
      <point x="22" y="513" type="line"/>
      <point x="22" y="441" type="line"/>
      <point x="29" y="439" type="line" smooth="yes"/>
      <point x="57" y="432"/>
      <point x="68" y="428"/>
      <point x="68" y="408" type="curve" smooth="yes"/>
      <point x="68" y="97" type="line" smooth="yes"/>
      <point x="68" y="75"/>
      <point x="48" y="68"/>
      <point x="23" y="68" type="curve" smooth="yes"/>
      <point x="22" y="68" type="line"/>
    </contour>
    <contour>
      <point x="663" y="0" type="line"/>
      <point x="663" y="68" type="line"/>
      <point x="661" y="68" type="line" smooth="yes"/>
      <point x="635" y="68"/>
      <point x="616" y="75"/>
      <point x="616" y="97" type="curve" smooth="yes"/>
      <point x="616" y="347" type="line" smooth="yes"/>
      <point x="616" y="462"/>
      <point x="548" y="523"/>
      <point x="444" y="523" type="curve" smooth="yes"/>
      <point x="352" y="523"/>
      <point x="287" y="474"/>
      <point x="244" y="390" type="curve"/>
      <point x="264" y="324" type="line"/>
      <point x="289" y="380"/>
      <point x="321" y="413"/>
      <point x="362" y="413" type="curve" smooth="yes"/>
      <point x="398" y="413"/>
      <point x="410" y="392"/>
      <point x="410" y="348" type="curve" smooth="yes"/>
      <point x="410" y="77" type="line" smooth="yes"/>
      <point x="410" y="71"/>
      <point x="386" y="68"/>
      <point x="370" y="68" type="curve" smooth="yes"/>
      <point x="369" y="68" type="line"/>
      <point x="369" y="0" type="line"/>
    </contour>
    <contour>
      <point x="320" y="551" type="move" name="top"/>
    </contour>
    <contour>
      <point x="328" y="0" type="move" name="bottom"/>
    </contour>
  </outline>
</glyph>
<glyph name="v" format="1">
  <advance width="599"/>
  <unicode hex="0076"/>
  <outline>
    <contour>
      <point x="458" y="424" type="curve"/>
      <point x="336" y="55" type="line"/>
      <point x="367" y="106" type="line"/>
      <point x="259" y="436" type="line"/>
      <point x="259" y="443"/>
      <point x="291" y="445"/>
      <point x="319" y="445" type="curve" smooth="yes"/>
      <point x="321" y="445" type="line"/>
      <point x="321" y="513" type="line"/>
      <point x="7" y="513" type="line"/>
      <point x="7" y="445" type="line"/>
      <point x="9" y="445" type="line" smooth="yes"/>
      <point x="36" y="445"/>
      <point x="50" y="437"/>
      <point x="59" y="411" type="curve" smooth="yes"/>
      <point x="200" y="0" type="line"/>
      <point x="403" y="0" type="line"/>
      <point x="540" y="403" type="line" smooth="yes"/>
      <point x="550" y="436"/>
      <point x="569" y="445"/>
      <point x="590" y="445" type="curve" smooth="yes"/>
      <point x="591" y="445" type="line"/>
      <point x="591" y="513" type="line"/>
      <point x="400" y="513" type="line"/>
      <point x="400" y="445" type="line"/>
      <point x="402" y="445" type="line" smooth="yes"/>
      <point x="428" y="445"/>
      <point x="457" y="436"/>
    </contour>
  </outline>
</glyph>
<glyph name="cent" format="1">
  <advance width="560"/>
  <unicode hex="00A2"/>
  <outline>
    <contour>
      <point x="268" y="623" type="line"/>
      <point x="268" y="473" type="line"/>
      <point x="285" y="458" type="line"/>
      <point x="285" y="51" type="line"/>
      <point x="268" y="34" type="line"/>
      <point x="268" y="-126" type="line"/>
      <point x="366" y="-126" type="line"/>
      <point x="366" y="27" type="line"/>
      <point x="349" y="42" type="line"/>
      <point x="349" y="464" type="line"/>
      <point x="366" y="481" type="line"/>
      <point x="366" y="623" type="line"/>
    </contour>
    <contour>
      <point x="342" y="71" type="curve" smooth="yes"/>
      <point x="260" y="71"/>
      <point x="210" y="122"/>
      <point x="210" y="253" type="curve" smooth="yes"/>
      <point x="210" y="381"/>
      <point x="238" y="441"/>
      <point x="326" y="441" type="curve" smooth="yes"/>
      <point x="385" y="441"/>
      <point x="411" y="420"/>
      <point x="424" y="402" type="curve"/>
      <point x="459" y="393"/>
      <point x="473" y="435"/>
      <point x="399" y="456" type="curve"/>
      <point x="399" y="326" type="line"/>
      <point x="528" y="326" type="line"/>
      <point x="528" y="463" type="line"/>
      <point x="502" y="483"/>
      <point x="438" y="523"/>
      <point x="316" y="523" type="curve" smooth="yes"/>
      <point x="143" y="523"/>
      <point x="25" y="421"/>
      <point x="25" y="253" type="curve" smooth="yes"/>
      <point x="25" y="86"/>
      <point x="149" y="-14"/>
      <point x="313" y="-14" type="curve" smooth="yes"/>
      <point x="434" y="-14"/>
      <point x="496" y="48"/>
      <point x="539" y="131" type="curve"/>
      <point x="471" y="177" type="line"/>
      <point x="445" y="131"/>
      <point x="408" y="71"/>
    </contour>
  </outline>
</glyph>
<glyph name="yen" format="1">
  <advance width="560"/>
  <unicode hex="00A5"/>
  <outline>
    <contour>
      <point x="50" y="371" type="line"/>
      <point x="50" y="283" type="line"/>
      <point x="514" y="283" type="line"/>
      <point x="514" y="371" type="line"/>
    </contour>
    <contour>
      <point x="50" y="240" type="line"/>
      <point x="50" y="152" type="line"/>
      <point x="514" y="152" type="line"/>
      <point x="514" y="240" type="line"/>
    </contour>
    <contour>
      <point x="8" y="710" type="line"/>
      <point x="8" y="637" type="line"/>
      <point x="12" y="637" type="line" smooth="yes"/>
      <point x="30" y="637"/>
      <point x="42" y="633"/>
      <point x="53" y="611" type="curve" smooth="yes"/>
      <point x="195" y="329" type="line"/>
      <point x="371" y="327" type="line"/>
      <point x="499" y="596" type="line" smooth="yes"/>
      <point x="516" y="631"/>
      <point x="530" y="637"/>
      <point x="549" y="637" type="curve" smooth="yes"/>
      <point x="552" y="637" type="line"/>
      <point x="552" y="710" type="line"/>
      <point x="376" y="710" type="line"/>
      <point x="376" y="637" type="line"/>
      <point x="381" y="637" type="line" smooth="yes"/>
      <point x="402" y="637"/>
      <point x="423" y="630"/>
      <point x="423" y="619" type="curve"/>
      <point x="313" y="379" type="line"/>
      <point x="369" y="395" type="line"/>
      <point x="257" y="627" type="line"/>
      <point x="257" y="634"/>
      <point x="277" y="637"/>
      <point x="296" y="637" type="curve" smooth="yes"/>
      <point x="305" y="637" type="line"/>
      <point x="305" y="710" type="line"/>
    </contour>
    <contour>
      <point x="109" y="0" type="line"/>
      <point x="455" y="0" type="line"/>
      <point x="455" y="73" type="line"/>
      <point x="441" y="73" type="line" smooth="yes"/>
      <point x="410" y="73"/>
      <point x="388" y="80"/>
      <point x="388" y="109" type="curve" smooth="yes"/>
      <point x="388" y="374" type="line"/>
      <point x="176" y="374" type="line"/>
      <point x="176" y="109" type="line" smooth="yes"/>
      <point x="176" y="80"/>
      <point x="154" y="73"/>
      <point x="123" y="73" type="curve" smooth="yes"/>
      <point x="109" y="73" type="line"/>
    </contour>
  </outline>
</glyph>
<glyph name="dieresis" format="1">
  <advance width="500"/>
  <unicode hex="00A8"/>
  <outline>
    <contour>
      <point x="126" y="568" type="curve" smooth="yes"/>
      <point x="190" y="568"/>
      <point x="228" y="601"/>
      <point x="228" y="656" type="curve" smooth="yes"/>
      <point x="228" y="711"/>
      <point x="190" y="744"/>
      <point x="126" y="744" type="curve" smooth="yes"/>
      <point x="63" y="744"/>
      <point x="24" y="711"/>
      <point x="24" y="656" type="curve" smooth="yes"/>
      <point x="24" y="600"/>
      <point x="63" y="568"/>
    </contour>
    <contour>
      <point x="373" y="568" type="curve" smooth="yes"/>
      <point x="438" y="568"/>
      <point x="476" y="601"/>
      <point x="476" y="656" type="curve" smooth="yes"/>
      <point x="476" y="711"/>
      <point x="438" y="744"/>
      <point x="373" y="744" type="curve" smooth="yes"/>
      <point x="311" y="744"/>
      <point x="271" y="711"/>
      <point x="271" y="656" type="curve" smooth="yes"/>
      <point x="271" y="600"/>
      <point x="311" y="568"/>
    </contour>
    <contour>
      <point x="250" y="526" type="move" name="_top"/>
    </contour>
  </outline>
</glyph>
<glyph name="registered" format="1">
  <advance width="855"/>
  <unicode hex="00AE"/>
  <outline>
    <contour>
      <point x="122" y="355" type="curve" smooth="yes"/>
      <point x="122" y="532"/>
      <point x="246" y="670"/>
      <point x="427" y="670" type="curve" smooth="yes"/>
      <point x="608" y="670"/>
      <point x="733" y="532"/>
      <point x="733" y="355" type="curve" smooth="yes"/>
      <point x="733" y="178"/>
      <point x="608" y="40"/>
      <point x="427" y="40" type="curve" smooth="yes"/>
      <point x="246" y="40"/>
      <point x="122" y="178"/>
    </contour>
    <contour>
      <point x="33" y="355" type="curve" smooth="yes"/>
      <point x="33" y="134"/>
      <point x="200" y="-37"/>
      <point x="427" y="-37" type="curve" smooth="yes"/>
      <point x="655" y="-37"/>
      <point x="822" y="134"/>
      <point x="822" y="355" type="curve" smooth="yes"/>
      <point x="822" y="577"/>
      <point x="655" y="747"/>
      <point x="427" y="747" type="curve" smooth="yes"/>
      <point x="200" y="747"/>
      <point x="33" y="577"/>
    </contour>
    <contour>
      <point x="237" y="152" type="line"/>
      <point x="430" y="152" type="line"/>
      <point x="430" y="211" type="line"/>
      <point x="424" y="211" type="line" smooth="yes"/>
      <point x="412" y="211"/>
      <point x="402" y="213"/>
      <point x="402" y="217" type="curve" smooth="yes"/>
      <point x="402" y="308" type="line"/>
      <point x="438" y="308" type="line" smooth="yes"/>
      <point x="551" y="308"/>
      <point x="613" y="358"/>
      <point x="613" y="437" type="curve" smooth="yes"/>
      <point x="613" y="512"/>
      <point x="557" y="557"/>
      <point x="441" y="557" type="curve" smooth="yes"/>
      <point x="237" y="557" type="line"/>
      <point x="237" y="498" type="line"/>
      <point x="242" y="498" type="line" smooth="yes"/>
      <point x="260" y="498"/>
      <point x="276" y="494"/>
      <point x="276" y="478" type="curve" smooth="yes"/>
      <point x="276" y="231" type="line" smooth="yes"/>
      <point x="276" y="215"/>
      <point x="260" y="211"/>
      <point x="242" y="211" type="curve" smooth="yes"/>
      <point x="237" y="211" type="line"/>
    </contour>
    <contour>
      <point x="422" y="492" type="line" smooth="yes"/>
      <point x="463" y="492"/>
      <point x="486" y="474"/>
      <point x="486" y="429" type="curve" smooth="yes"/>
      <point x="486" y="382"/>
      <point x="463" y="358"/>
      <point x="419" y="358" type="curve" smooth="yes"/>
      <point x="402" y="358" type="line"/>
      <point x="402" y="492" type="line"/>
    </contour>
    <contour>
      <point x="416" y="335" type="line"/>
      <point x="488" y="152" type="line"/>
      <point x="628" y="152" type="line"/>
      <point x="628" y="211" type="line"/>
      <point x="621" y="211" type="line" smooth="yes"/>
      <point x="607" y="211"/>
      <point x="598" y="214"/>
      <point x="592" y="227" type="curve" smooth="yes"/>
      <point x="524" y="373" type="line"/>
    </contour>
  </outline>
</glyph>
<glyph name="paragraph" format="1">
  <advance width="647"/>
  <unicode hex="00B6"/>
  <outline>
    <contour>
      <point x="622" y="710" type="line"/>
      <point x="622" y="637" type="line"/>
      <point x="612" y="637" type="line" smooth="yes"/>
      <point x="581" y="637"/>
      <point x="558" y="630"/>
      <point x="558" y="601" type="curve" smooth="yes"/>
      <point x="558" y="0" type="line"/>
      <point x="441" y="0" type="line"/>
      <point x="441" y="710" type="line"/>
    </contour>
    <contour>
      <point x="376" y="0" type="line"/>
      <point x="259" y="0" type="line"/>
      <point x="259" y="300" type="line"/>
      <point x="254" y="300" type="line" smooth="yes"/>
      <point x="111" y="300"/>
      <point x="23" y="387"/>
      <point x="23" y="511" type="curve" smooth="yes"/>
      <point x="23" y="632"/>
      <point x="107" y="710"/>
      <point x="249" y="710" type="curve" smooth="yes"/>
      <point x="376" y="710" type="line"/>
    </contour>
    <contour>
      <point x="473" y="710" type="line"/>
      <point x="473" y="637" type="line"/>
      <point x="308" y="637" type="line"/>
      <point x="308" y="710" type="line"/>
    </contour>
  </outline>
</glyph>
<glyph name="AE" format="1">
  <advance width="971"/>
  <unicode hex="00C6"/>
  <outline>
    <contour>
      <point x="6" y="0" type="line"/>
      <point x="223" y="0" type="line"/>
      <point x="223" y="73" type="line"/>
      <point x="211" y="73" type="line" smooth="yes"/>
      <point x="184" y="73"/>
      <point x="158" y="80"/>
      <point x="158" y="91" type="curve"/>
      <point x="233" y="227" type="line"/>
      <point x="441" y="227" type="line"/>
      <point x="441" y="103" type="line" smooth="yes"/>
      <point x="441" y="79"/>
      <point x="416" y="73"/>
      <point x="387" y="73" type="curve" smooth="yes"/>
      <point x="378" y="73" type="line"/>
      <point x="378" y="0" type="line"/>
      <point x="939" y="0" type="line"/>
      <point x="939" y="231" type="line"/>
      <point x="856" y="231" type="line"/>
      <point x="845" y="127" type="line" smooth="yes"/>
      <point x="842" y="91"/>
      <point x="811" y="84"/>
      <point x="732" y="84" type="curve" smooth="yes"/>
      <point x="659" y="84" type="line"/>
      <point x="659" y="326" type="line"/>
      <point x="836" y="315" type="line"/>
      <point x="836" y="412" type="line"/>
      <point x="659" y="401" type="line"/>
      <point x="659" y="626" type="line"/>
      <point x="727" y="626" type="line" smooth="yes"/>
      <point x="786" y="626"/>
      <point x="821" y="619"/>
      <point x="824" y="583" type="curve" smooth="yes"/>
      <point x="830" y="505" type="line"/>
      <point x="911" y="505" type="line"/>
      <point x="911" y="710" type="line"/>
      <point x="235" y="710" type="line"/>
      <point x="235" y="637" type="line"/>
      <point x="253" y="637" type="line" smooth="yes"/>
      <point x="311" y="637"/>
      <point x="344" y="627"/>
      <point x="345" y="605" type="curve"/>
      <point x="71" y="116" type="line" smooth="yes"/>
      <point x="52" y="84"/>
      <point x="37" y="73"/>
      <point x="11" y="73" type="curve" smooth="yes"/>
      <point x="6" y="73" type="line"/>
    </contour>
    <contour>
      <point x="276" y="308" type="line"/>
      <point x="441" y="610" type="line"/>
      <point x="441" y="308" type="line"/>
    </contour>
    <contour>
      <point x="617" y="741" type="move" name="top"/>
    </contour>
  </outline>
</glyph>
<glyph name="eogonek" format="1">
  <advance width="597"/>
  <unicode hex="0119"/>
  <outline>
    <contour>
      <point x="454" y="39" type="line"/>
      <point x="299" y="-13"/>
      <point x="219" y="-59"/>
      <point x="219" y="-139" type="curve" smooth="yes"/>
      <point x="219" y="-207"/>
      <point x="273" y="-244"/>
      <point x="355" y="-244" type="curve" smooth="yes"/>
      <point x="430" y="-244"/>
      <point x="472" y="-215"/>
      <point x="506" y="-172" type="curve"/>
      <point x="462" y="-125" type="line"/>
      <point x="452" y="-134"/>
      <point x="434" y="-153"/>
      <point x="409" y="-153" type="curve" smooth="yes"/>
      <point x="386" y="-153"/>
      <point x="372" y="-139"/>
      <point x="372" y="-111" type="curve" smooth="yes"/>
      <point x="372" y="-68"/>
      <point x="401" y="-36"/>
      <point x="484" y="28" type="curve" smooth="yes"/>
      <point x="519" y="56"/>
      <point x="541" y="80"/>
      <point x="561" y="119" type="curve"/>
      <point x="492" y="166" type="line"/>
      <point x="468" y="122"/>
      <point x="429" y="76"/>
      <point x="361" y="76" type="curve" smooth="yes"/>
      <point x="270" y="76"/>
      <point x="235" y="138"/>
      <point x="235" y="253" type="curve" smooth="yes"/>
      <point x="235" y="386"/>
      <point x="266" y="437"/>
      <point x="313" y="437" type="curve" smooth="yes"/>
      <point x="361" y="437"/>
      <point x="381" y="401"/>
      <point x="383" y="268" type="curve"/>
      <point x="404" y="301" type="line"/>
      <point x="132" y="301" type="line"/>
      <point x="132" y="223" type="line"/>
      <point x="573" y="223" type="line"/>
      <point x="572" y="423"/>
      <point x="480" y="523"/>
      <point x="309" y="523" type="curve" smooth="yes"/>
      <point x="147" y="523"/>
      <point x="29" y="416"/>
      <point x="29" y="253" type="curve" smooth="yes"/>
      <point x="29" y="88"/>
      <point x="144" y="-14"/>
      <point x="327" y="-14" type="curve" smooth="yes"/>
      <point x="378" y="-14"/>
      <point x="421" y="-4"/>
      <point x="455" y="12" type="curve"/>
    </contour>
  </outline>
</glyph>
<glyph name="Hbar" format="1">
  <advance width="820"/>
  <unicode hex="0126"/>
  <outline>
    <contour>
      <point x="28" y="548" type="line"/>
      <point x="28" y="473" type="line"/>
      <point x="797" y="473" type="line"/>
      <point x="797" y="548" type="line"/>
    </contour>
    <contour>
      <point x="178" y="389" type="line"/>
      <point x="178" y="312" type="line"/>
      <point x="609" y="312" type="line"/>
      <point x="609" y="389" type="line"/>
    </contour>
    <contour>
      <point x="28" y="0" type="line"/>
      <point x="373" y="0" type="line"/>
      <point x="373" y="73" type="line"/>
      <point x="365" y="73" type="line" smooth="yes"/>
      <point x="340" y="73"/>
      <point x="310" y="76"/>
      <point x="310" y="83" type="curve" smooth="yes"/>
      <point x="310" y="627" type="line" smooth="yes"/>
      <point x="310" y="634"/>
      <point x="340" y="637"/>
      <point x="365" y="637" type="curve" smooth="yes"/>
      <point x="373" y="637" type="line"/>
      <point x="373" y="710" type="line"/>
      <point x="28" y="710" type="line"/>
      <point x="28" y="637" type="line"/>
      <point x="38" y="637" type="line" smooth="yes"/>
      <point x="69" y="637"/>
      <point x="92" y="630"/>
      <point x="92" y="601" type="curve" smooth="yes"/>
      <point x="92" y="109" type="line" smooth="yes"/>
      <point x="92" y="80"/>
      <point x="69" y="73"/>
      <point x="38" y="73" type="curve" smooth="yes"/>
      <point x="28" y="73" type="line"/>
    </contour>
    <contour>
      <point x="452" y="0" type="line"/>
      <point x="797" y="0" type="line"/>
      <point x="797" y="73" type="line"/>
      <point x="787" y="73" type="line" smooth="yes"/>
      <point x="756" y="73"/>
      <point x="733" y="80"/>
      <point x="733" y="109" type="curve" smooth="yes"/>
      <point x="733" y="601" type="line" smooth="yes"/>
      <point x="733" y="630"/>
      <point x="756" y="637"/>
      <point x="787" y="637" type="curve" smooth="yes"/>
      <point x="797" y="637" type="line"/>
      <point x="797" y="710" type="line"/>
      <point x="452" y="710" type="line"/>
      <point x="452" y="637" type="line"/>
      <point x="460" y="637" type="line" smooth="yes"/>
      <point x="485" y="637"/>
      <point x="515" y="634"/>
      <point x="515" y="627" type="curve" smooth="yes"/>
      <point x="515" y="83" type="line" smooth="yes"/>
      <point x="515" y="76"/>
      <point x="485" y="73"/>
      <point x="460" y="73" type="curve" smooth="yes"/>
      <point x="452" y="73" type="line"/>
    </contour>
  </outline>
</glyph>
<glyph name="Ldot" format="1">
  <advance width="672"/>
  <unicode hex="013F"/>
  <outline>
    <contour>
      <point x="381" y="710" type="line"/>
      <point x="381" y="637" type="line"/>
      <point x="367" y="637" type="line" smooth="yes"/>
      <point x="333" y="637"/>
      <point x="310" y="630"/>
      <point x="310" y="601" type="curve" smooth="yes"/>
      <point x="310" y="84" type="line"/>
      <point x="394" y="84" type="line" smooth="yes"/>
      <point x="472" y="84"/>
      <point x="504" y="91"/>
      <point x="508" y="127" type="curve" smooth="yes"/>
      <point x="518" y="232" type="line"/>
      <point x="615" y="232" type="line"/>
      <point x="615" y="0" type="line"/>
      <point x="28" y="0" type="line"/>
      <point x="28" y="73" type="line"/>
      <point x="38" y="73" type="line" smooth="yes"/>
      <point x="69" y="73"/>
      <point x="92" y="80"/>
      <point x="92" y="109" type="curve" smooth="yes"/>
      <point x="92" y="601" type="line" smooth="yes"/>
      <point x="92" y="630"/>
      <point x="69" y="637"/>
      <point x="38" y="637" type="curve" smooth="yes"/>
      <point x="28" y="637" type="line"/>
      <point x="28" y="710" type="line"/>
    </contour>
    <component base="periodcentered" xOffset="375" yOffset="62"/>
  </outline>
</glyph>
<glyph name="ogonek" format="1">
  <advance width="600"/>
  <unicode hex="02DB"/>
  <outline>
    <contour>
      <point x="379" y="41" type="line"/>
      <point x="231" y="-9"/>
      <point x="151" y="-57"/>
      <point x="151" y="-141" type="curve" smooth="yes"/>
      <point x="151" y="-207"/>
      <point x="205" y="-244"/>
      <point x="287" y="-244" type="curve" smooth="yes"/>
      <point x="362" y="-244"/>
      <point x="404" y="-215"/>
      <point x="438" y="-172" type="curve"/>
      <point x="394" y="-125" type="line"/>
      <point x="384" y="-134"/>
      <point x="366" y="-153"/>
      <point x="341" y="-153" type="curve" smooth="yes"/>
      <point x="318" y="-153"/>
      <point x="304" y="-139"/>
      <point x="304" y="-111" type="curve" smooth="yes"/>
      <point x="304" y="-75"/>
      <point x="328" y="-30"/>
      <point x="419" y="13" type="curve"/>
    </contour>
    <contour>
      <point x="356" y="9" type="move" name="_right"/>
    </contour>
  </outline>
</glyph>
<glyph name="acutecomb" format="1">
  <advance width="375"/>
  <unicode hex="0301"/>
  <outline>
    <contour>
      <point x="73" y="685" type="curve" smooth="yes"/>
      <point x="43" y="585" type="line"/>
      <point x="43" y="556" type="line"/>
      <point x="104" y="556" type="line"/>
      <point x="179" y="612" type="line" smooth="yes"/>
      <point x="225" y="641"/>
      <point x="246" y="674"/>
      <point x="246" y="712" type="curve" smooth="yes"/>
      <point x="246" y="749"/>
      <point x="217" y="778"/>
      <point x="171" y="778" type="curve" smooth="yes"/>
      <point x="118" y="778"/>
      <point x="89" y="744"/>
    </contour>
    <contour>
      <point x="-353" y="527" type="move" name="_top"/>
    </contour>
  </outline>
</glyph>
<glyph name="brevecomb" format="1">
  <advance width="375"/>
  <unicode hex="0306"/>
  <outline>
    <contour>
      <point x="111" y="561" type="curve" smooth="yes"/>
      <point x="12" y="561"/>
      <point x="-57" y="626"/>
      <point x="-56" y="741" type="curve"/>
      <point x="40" y="741" type="line"/>
      <point x="47" y="688"/>
      <point x="71" y="676"/>
      <point x="114" y="676" type="curve" smooth="yes"/>
      <point x="157" y="676"/>
      <point x="180" y="688"/>
      <point x="187" y="741" type="curve"/>
      <point x="277" y="741" type="line"/>
      <point x="278" y="626"/>
      <point x="209" y="561"/>
    </contour>
    <contour>
      <point x="-307" y="517" type="move" name="_top"/>
    </contour>
  </outline>
</glyph>
<glyph name="Delta" format="1">
  <advance width="777"/>
  <unicode hex="0394"/>
  <outline>
    <contour>
      <point x="30" y="0" type="line"/>
      <point x="747" y="0" type="line"/>
      <point x="747" y="122" type="line"/>
      <point x="472" y="710" type="line"/>
      <point x="305" y="710" type="line"/>
      <point x="30" y="122" type="line"/>
    </contour>
    <contour>
      <point x="553" y="70" type="line"/>
      <point x="656" y="141" type="line"/>
      <point x="76" y="141" type="line"/>
      <point x="102" y="91" type="line"/>
      <point x="380" y="692" type="line"/>
      <point x="294" y="650" type="line"/>
    </contour>
  </outline>
</glyph>
<glyph name="dagger" format="1">
  <advance width="530"/>
  <unicode hex="2020"/>
  <outline>
    <contour>
      <point x="227" y="470" type="line"/>
      <point x="303" y="470" type="line"/>
      <point x="466" y="395" type="line"/>
      <point x="504" y="395" type="line"/>
      <point x="504" y="579" type="line"/>
      <point x="466" y="579" type="line"/>
      <point x="303" y="521" type="line"/>
      <point x="227" y="521" type="line"/>
      <point x="64" y="579" type="line"/>
      <point x="26" y="579" type="line"/>
      <point x="26" y="395" type="line"/>
      <point x="64" y="395" type="line"/>
    </contour>
    <contour>
      <point x="383" y="710" type="line"/>
      <point x="147" y="710" type="line"/>
      <point x="147" y="668" type="line" smooth="yes"/>
      <point x="147" y="633"/>
      <point x="223" y="552"/>
      <point x="223" y="494" type="curve" smooth="yes"/>
      <point x="223" y="431"/>
      <point x="193" y="380"/>
      <point x="132" y="351" type="curve"/>
      <point x="132" y="323" type="line" smooth="yes"/>
      <point x="132" y="288"/>
      <point x="192" y="197"/>
      <point x="229" y="0" type="curve"/>
      <point x="301" y="0" type="line"/>
      <point x="338" y="197"/>
      <point x="399" y="288"/>
      <point x="399" y="323" type="curve" smooth="yes"/>
      <point x="399" y="351" type="line"/>
      <point x="337" y="380"/>
      <point x="307" y="431"/>
      <point x="307" y="494" type="curve" smooth="yes"/>
      <point x="307" y="552"/>
      <point x="383" y="633"/>
      <point x="383" y="668" type="curve" smooth="yes"/>
    </contour>
  </outline>
</glyph>
<glyph name="bullet" format="1">
  <advance width="426"/>
  <unicode hex="2022"/>
  <outline>
    <contour>
      <point x="48" y="341" type="curve" smooth="yes"/>
      <point x="48" y="248"/>
      <point x="117" y="184"/>
      <point x="213" y="184" type="curve" smooth="yes"/>
      <point x="310" y="184"/>
      <point x="379" y="248"/>
      <point x="379" y="341" type="curve" smooth="yes"/>
      <point x="379" y="434"/>
      <point x="310" y="498"/>
      <point x="213" y="498" type="curve" smooth="yes"/>
      <point x="117" y="498"/>
      <point x="48" y="434"/>
    </contour>
  </outline>
</glyph>
<glyph name="uni20AB" format="1">
  <advance width="560"/>
  <unicode hex="20AB"/>
  <outline>
    <contour>
      <point x="213" y="249" type="curve" smooth="yes"/>
      <point x="213" y="356"/>
      <point x="229" y="422"/>
      <point x="272" y="422" type="curve" smooth="yes"/>
      <point x="309" y="422"/>
      <point x="326" y="376"/>
      <point x="338" y="306" type="curve"/>
      <point x="378" y="316" type="line"/>
      <point x="352" y="456"/>
      <point x="306" y="523"/>
      <point x="213" y="523" type="curve" smooth="yes"/>
      <point x="96" y="523"/>
      <point x="21" y="417"/>
      <point x="21" y="249" type="curve" smooth="yes"/>
      <point x="21" y="84"/>
      <point x="91" y="-13"/>
      <point x="208" y="-13" type="curve" smooth="yes"/>
      <point x="294" y="-13"/>
      <point x="332" y="45"/>
      <point x="376" y="166" type="curve"/>
      <point x="345" y="210" type="line"/>
      <point x="328" y="134"/>
      <point x="304" y="87"/>
      <point x="269" y="87" type="curve" smooth="yes"/>
      <point x="229" y="87"/>
      <point x="213" y="144"/>
    </contour>
    <contour>
      <point x="322" y="716" type="line"/>
      <point x="322" y="102" type="line"/>
      <point x="335" y="112" type="line"/>
      <point x="335" y="0" type="line"/>
      <point x="549" y="0" type="line"/>
      <point x="549" y="71" type="line"/>
      <point x="543" y="73" type="line"/>
      <point x="519" y="77"/>
      <point x="507" y="82"/>
      <point x="507" y="101" type="curve" smooth="yes"/>
      <point x="507" y="716" type="line"/>
    </contour>
    <contour>
      <point x="77" y="-96" type="line"/>
      <point x="77" y="-190" type="line"/>
      <point x="514" y="-190" type="line"/>
      <point x="514" y="-96" type="line"/>
    </contour>
    <contour>
      <point x="193" y="651" type="line"/>
      <point x="193" y="567" type="line"/>
      <point x="559" y="567" type="line"/>
      <point x="559" y="651" type="line"/>
    </contour>
  </outline>
</glyph>
<glyph name="kip" format="1">
  <advance width="560"/>
  <unicode hex="20AD"/>
  <outline>
    <contour>
      <point x="8" y="417" type="line"/>
      <point x="8" y="332" type="line"/>
      <point x="541" y="332" type="line"/>
      <point x="541" y="417" type="line"/>
    </contour>
    <contour>
      <point x="8" y="0" type="line"/>
      <point x="265" y="0" type="line" smooth="yes"/>
      <point x="265" y="73" type="line" smooth="yes"/>
      <point x="261" y="73" type="line" smooth="yes"/>
      <point x="247" y="73"/>
      <point x="235" y="76"/>
      <point x="235" y="80" type="curve" smooth="yes"/>
      <point x="235" y="627" type="line" smooth="yes"/>
      <point x="235" y="634"/>
      <point x="253" y="637"/>
      <point x="271" y="637" type="curve" smooth="yes"/>
      <point x="282" y="637" type="line" smooth="yes"/>
      <point x="282" y="710" type="line" smooth="yes"/>
      <point x="8" y="710" type="line"/>
      <point x="8" y="637" type="line"/>
      <point x="14" y="637" type="line" smooth="yes"/>
      <point x="33" y="637"/>
      <point x="47" y="630"/>
      <point x="47" y="608" type="curve" smooth="yes"/>
      <point x="47" y="102" type="line" smooth="yes"/>
      <point x="47" y="80"/>
      <point x="33" y="73"/>
      <point x="14" y="73" type="curve" smooth="yes"/>
      <point x="8" y="73" type="line"/>
    </contour>
    <contour>
      <point x="556" y="73" type="line"/>
      <point x="554" y="73" type="line" smooth="yes"/>
      <point x="538" y="73"/>
      <point x="527" y="79"/>
      <point x="520" y="100" type="curve" smooth="yes"/>
      <point x="399" y="486" type="line"/>
      <point x="354" y="353" type="line"/>
      <point x="486" y="601" type="line" smooth="yes"/>
      <point x="502" y="631"/>
      <point x="513" y="637"/>
      <point x="532" y="637" type="curve" smooth="yes"/>
      <point x="541" y="637" type="line"/>
      <point x="541" y="710" type="line"/>
      <point x="349" y="710" type="line"/>
      <point x="349" y="637" type="line"/>
      <point x="360" y="637" type="line" smooth="yes"/>
      <point x="378" y="637"/>
      <point x="400" y="635"/>
      <point x="400" y="628" type="curve"/>
      <point x="253" y="364" type="line"/>
      <point x="255" y="352" type="line"/>
      <point x="330" y="80" type="line"/>
      <point x="330" y="76"/>
      <point x="316" y="73"/>
      <point x="303" y="73" type="curve" smooth="yes"/>
      <point x="298" y="73" type="line"/>
      <point x="298" y="0" type="line"/>
      <point x="556" y="0" type="line"/>
    </contour>
  </outline>
</glyph>
<glyph name="guarani" format="1">
  <advance width="560"/>
  <unicode hex="20B2"/>
  <outline>
    <contour>
      <point x="385" y="362" type="line"/>
      <point x="385" y="289" type="line"/>
      <point x="387" y="289" type="line" smooth="yes"/>
      <point x="392" y="289"/>
      <point x="396" y="282"/>
      <point x="396" y="253" type="curve"/>
      <point x="524" y="256" type="line"/>
      <point x="524" y="282"/>
      <point x="535" y="289"/>
      <point x="552" y="289" type="curve" smooth="yes"/>
      <point x="556" y="289" type="line"/>
      <point x="556" y="362" type="line"/>
    </contour>
    <contour>
      <point x="256" y="790" type="line"/>
      <point x="256" y="663" type="line"/>
      <point x="269" y="649" type="line"/>
      <point x="269" y="61" type="line"/>
      <point x="256" y="40" type="line"/>
      <point x="256" y="-120" type="line"/>
      <point x="353" y="-120" type="line"/>
      <point x="353" y="39" type="line"/>
      <point x="340" y="62" type="line"/>
      <point x="340" y="653" type="line"/>
      <point x="353" y="670" type="line"/>
      <point x="353" y="790" type="line"/>
    </contour>
    <contour>
      <point x="313" y="-5" type="curve"/>
      <point x="412" y="-5"/>
      <point x="489" y="39"/>
      <point x="524" y="81" type="curve"/>
      <point x="524" y="299" type="line"/>
      <point x="396" y="325" type="line"/>
      <point x="396" y="105" type="line"/>
      <point x="382" y="92"/>
      <point x="356" y="77"/>
      <point x="321" y="77" type="curve"/>
      <point x="230" y="77"/>
      <point x="191" y="175"/>
      <point x="191" y="355" type="curve" smooth="yes"/>
      <point x="191" y="522"/>
      <point x="217" y="633"/>
      <point x="330" y="633" type="curve"/>
      <point x="379" y="633"/>
      <point x="415" y="614"/>
      <point x="439" y="579" type="curve"/>
      <point x="471" y="586"/>
      <point x="473" y="630"/>
      <point x="403" y="625" type="curve"/>
      <point x="403" y="515" type="line"/>
      <point x="528" y="515" type="line"/>
      <point x="528" y="653" type="line"/>
      <point x="506" y="679"/>
      <point x="433" y="715"/>
      <point x="318" y="715" type="curve"/>
      <point x="135" y="715"/>
      <point x="13" y="566"/>
      <point x="13" y="355" type="curve" smooth="yes"/>
      <point x="13" y="138"/>
      <point x="132" y="-5"/>
    </contour>
  </outline>
</glyph>
<glyph name="trademark" format="1">
  <advance width="924"/>
  <unicode hex="2122"/>
  <outline>
    <contour>
      <point x="34" y="710" type="line"/>
      <point x="34" y="588" type="line"/>
      <point x="89" y="588" type="line"/>
      <point x="92" y="642" type="line" smooth="yes"/>
      <point x="93" y="659"/>
      <point x="107" y="666"/>
      <point x="142" y="666" type="curve" smooth="yes"/>
      <point x="150" y="666" type="line"/>
      <point x="150" y="437" type="line" smooth="yes"/>
      <point x="150" y="424"/>
      <point x="140" y="420"/>
      <point x="126" y="420" type="curve" smooth="yes"/>
      <point x="118" y="420" type="line"/>
      <point x="118" y="376" type="line"/>
      <point x="296" y="376" type="line"/>
      <point x="296" y="420" type="line"/>
      <point x="288" y="420" type="line" smooth="yes"/>
      <point x="274" y="420"/>
      <point x="264" y="424"/>
      <point x="264" y="437" type="curve" smooth="yes"/>
      <point x="264" y="666" type="line"/>
      <point x="272" y="666" type="line" smooth="yes"/>
      <point x="307" y="666"/>
      <point x="321" y="659"/>
      <point x="322" y="642" type="curve" smooth="yes"/>
      <point x="326" y="588" type="line"/>
      <point x="380" y="588" type="line"/>
      <point x="380" y="710" type="line"/>
    </contour>
    <contour>
      <point x="408" y="376" type="line"/>
      <point x="518" y="376" type="line"/>
      <point x="518" y="420" type="line"/>
      <point x="516" y="420" type="line" smooth="yes"/>
      <point x="506" y="420"/>
      <point x="492" y="422"/>
      <point x="492" y="425" type="curve" smooth="yes"/>
      <point x="492" y="701" type="line"/>
      <point x="482" y="700" type="line"/>
      <point x="572" y="375" type="line"/>
      <point x="652" y="375" type="line"/>
      <point x="746" y="700" type="line"/>
      <point x="736" y="700" type="line"/>
      <point x="736" y="425" type="line" smooth="yes"/>
      <point x="736" y="422"/>
      <point x="724" y="420"/>
      <point x="713" y="420" type="curve" smooth="yes"/>
      <point x="709" y="420" type="line"/>
      <point x="709" y="376" type="line"/>
      <point x="879" y="376" type="line"/>
      <point x="879" y="420" type="line"/>
      <point x="875" y="420" type="line" smooth="yes"/>
      <point x="860" y="420"/>
      <point x="850" y="424"/>
      <point x="850" y="437" type="curve" smooth="yes"/>
      <point x="850" y="649" type="line" smooth="yes"/>
      <point x="850" y="663"/>
      <point x="860" y="666"/>
      <point x="875" y="666" type="curve" smooth="yes"/>
      <point x="879" y="666" type="line"/>
      <point x="879" y="710" type="line"/>
      <point x="691" y="710" type="line"/>
      <point x="609" y="418" type="line"/>
      <point x="653" y="472" type="line"/>
      <point x="598" y="710" type="line"/>
      <point x="408" y="710" type="line"/>
      <point x="408" y="666" type="line"/>
      <point x="413" y="666" type="line" smooth="yes"/>
      <point x="427" y="666"/>
      <point x="437" y="663"/>
      <point x="437" y="649" type="curve" smooth="yes"/>
      <point x="437" y="437" type="line" smooth="yes"/>
      <point x="437" y="424"/>
      <point x="427" y="420"/>
      <point x="413" y="420" type="curve"/>
      <point x="408" y="420" type="line"/>
    </contour>
  </outline>
</glyph>
<glyph name="emptyset" format="1">
  <advance width="697"/>
  <unicode hex="2205"/>
  <outline>
    <contour>
      <point x="66" y="270" type="curve" smooth="yes"/>
      <point x="66" y="110"/>
      <point x="193" y="-10"/>
      <point x="348" y="-10" type="curve" smooth="yes"/>
      <point x="503" y="-10"/>
      <point x="630" y="110"/>
      <point x="630" y="270" type="curve" smooth="yes"/>
      <point x="630" y="430"/>
      <point x="503" y="550"/>
      <point x="348" y="550" type="curve" smooth="yes"/>
      <point x="193" y="550"/>
      <point x="66" y="430"/>
    </contour>
    <contour>
      <point x="615" y="591" type="line"/>
      <point x="35" y="-5" type="line"/>
      <point x="82" y="-51" type="line"/>
      <point x="662" y="545" type="line"/>
    </contour>
    <contour>
      <point x="348" y="60" type="curve" smooth="yes"/>
      <point x="234" y="60"/>
      <point x="141" y="147"/>
      <point x="141" y="270" type="curve" smooth="yes"/>
      <point x="141" y="393"/>
      <point x="234" y="481"/>
      <point x="348" y="481" type="curve" smooth="yes"/>
      <point x="466" y="481"/>
      <point x="556" y="394"/>
      <point x="556" y="270" type="curve" smooth="yes"/>
      <point x="556" y="147"/>
      <point x="466" y="60"/>
    </contour>
  </outline>
</glyph>
<glyph name="summation" format="1">
  <advance width="612"/>
  <unicode hex="2211"/>
  <outline>
    <contour>
      <point x="103" y="571" type="line"/>
      <point x="188" y="630" type="line"/>
      <point x="387" y="310" type="line"/>
      <point x="387" y="236" type="line"/>
      <point x="73" y="-165" type="line"/>
      <point x="100" y="-84" type="line"/>
      <point x="372" y="-84" type="line" smooth="yes"/>
      <point x="451" y="-84"/>
      <point x="481" y="-77"/>
      <point x="485" y="-41" type="curve" smooth="yes"/>
      <point x="496" y="62" type="line"/>
      <point x="579" y="62" type="line"/>
      <point x="579" y="-223" type="line"/>
      <point x="23" y="-223" type="line"/>
      <point x="23" y="-92" type="line"/>
      <point x="330" y="294" type="line"/>
      <point x="274" y="154" type="line"/>
      <point x="23" y="575" type="line"/>
      <point x="23" y="710" type="line"/>
      <point x="558" y="710" type="line"/>
      <point x="558" y="448" type="line"/>
      <point x="477" y="448" type="line"/>
      <point x="471" y="528" type="line" smooth="yes"/>
      <point x="469" y="564"/>
      <point x="433" y="571"/>
      <point x="374" y="571" type="curve" smooth="yes"/>
    </contour>
  </outline>
</glyph>
<glyph name="approxequal" format="1">
  <advance width="560"/>
  <unicode hex="2248"/>
  <outline>
    <contour>
      <point x="363" y="329" type="curve" smooth="yes"/>
      <point x="453" y="329"/>
      <point x="500" y="418"/>
      <point x="527" y="522" type="curve"/>
      <point x="430" y="549" type="line"/>
      <point x="419" y="514"/>
      <point x="407" y="471"/>
      <point x="366" y="471" type="curve" smooth="yes"/>
      <point x="315" y="471"/>
      <point x="279" y="546"/>
      <point x="194" y="546" type="curve" smooth="yes"/>
      <point x="97" y="546"/>
      <point x="56" y="466"/>
      <point x="35" y="356" type="curve"/>
      <point x="132" y="330" type="line"/>
      <point x="139" y="362"/>
      <point x="150" y="404"/>
      <point x="188" y="404" type="curve" smooth="yes"/>
      <point x="235" y="404"/>
      <point x="278" y="329"/>
    </contour>
    <contour>
      <point x="363" y="76" type="curve" smooth="yes"/>
      <point x="453" y="76"/>
      <point x="500" y="166"/>
      <point x="527" y="270" type="curve"/>
      <point x="430" y="296" type="line"/>
      <point x="420" y="261"/>
      <point x="407" y="219"/>
      <point x="366" y="219" type="curve" smooth="yes"/>
      <point x="315" y="219"/>
      <point x="279" y="294"/>
      <point x="194" y="294" type="curve" smooth="yes"/>
      <point x="97" y="294"/>
      <point x="56" y="213"/>
      <point x="35" y="104" type="curve"/>
      <point x="132" y="78" type="line"/>
      <point x="139" y="111"/>
      <point x="150" y="152"/>
      <point x="188" y="152" type="curve" smooth="yes"/>
      <point x="235" y="152"/>
      <point x="278" y="76"/>
    </contour>
  </outline>
</glyph>
<glyph name="asterisk.alt" format="1">
  <advance width="479"/>
  <outline>
    <contour>
      <point x="270" y="490" type="curve"/>
      <point x="206" y="537" type="line"/>
      <point x="146" y="454"/>
      <point x="104" y="436"/>
      <point x="73" y="393" type="curve"/>
      <point x="174" y="318" type="line"/>
      <point x="206" y="362"/>
      <point x="211" y="407"/>
    </contour>
    <contour>
      <point x="228" y="476" type="curve"/>
      <point x="252" y="552" type="line"/>
      <point x="155" y="584"/>
      <point x="126" y="617"/>
      <point x="74" y="634" type="curve"/>
      <point x="35" y="515" type="line"/>
      <point x="87" y="498"/>
      <point x="131" y="508"/>
    </contour>
    <contour>
      <point x="200" y="515" type="curve"/>
      <point x="279" y="515" type="line"/>
      <point x="279" y="616"/>
      <point x="303" y="656"/>
      <point x="303" y="710" type="curve"/>
      <point x="176" y="710" type="line"/>
      <point x="176" y="656"/>
      <point x="200" y="616"/>
    </contour>
    <contour>
      <point x="305" y="318" type="curve"/>
      <point x="406" y="393" type="line"/>
      <point x="375" y="436"/>
      <point x="333" y="454"/>
      <point x="273" y="537" type="curve"/>
      <point x="209" y="490" type="line"/>
      <point x="268" y="407"/>
      <point x="273" y="362"/>
    </contour>
    <contour>
      <point x="251" y="476" type="line"/>
      <point x="348" y="508"/>
      <point x="392" y="498"/>
      <point x="444" y="515" type="curve"/>
      <point x="405" y="634" type="line"/>
      <point x="353" y="617"/>
      <point x="324" y="584"/>
      <point x="227" y="552" type="curve"/>
    </contour>
  </outline>
</glyph>
<glyph name="bracketleft.uc" format="1">
  <advance width="355"/>
  <outline>
    <contour>
      <point x="45" y="748" type="line"/>
      <point x="45" y="-42" type="line"/>
      <point x="208" y="-42" type="line"/>
      <point x="208" y="748" type="line"/>
    </contour>
    <contour>
      <point x="330" y="748" type="line"/>
      <point x="85" y="748" type="line"/>
      <point x="85" y="660" type="line"/>
      <point x="330" y="660" type="line"/>
    </contour>
    <contour>
      <point x="330" y="46" type="line"/>
      <point x="85" y="46" type="line"/>
      <point x="85" y="-42" type="line"/>
      <point x="330" y="-42" type="line"/>
    </contour>
  </outline>
</glyph>
<glyph name="caron.alt" format="1">
  <advance width="500"/>
  <outline>
    <contour>
      <point x="189" y="528" type="line"/>
      <point x="100" y="528" type="line"/>
      <point x="100" y="538" type="line"/>
      <point x="117" y="710" type="line"/>
      <point x="265" y="710" type="line"/>
    </contour>
    <contour>
      <point x="88" y="574" type="move" name="_right"/>
    </contour>
  </outline>
</glyph>
<glyph name="cedi.proportional" format="1">
  <advance width="726"/>
  <outline>
    <contour>
      <point x="408" y="715" type="curve" smooth="yes"/>
      <point x="187" y="715"/>
      <point x="38" y="571"/>
      <point x="38" y="355" type="curve" smooth="yes"/>
      <point x="38" y="140"/>
      <point x="186" y="-5"/>
      <point x="396" y="-5" type="curve" smooth="yes"/>
      <point x="567" y="-5"/>
      <point x="659" y="93"/>
      <point x="689" y="235" type="curve"/>
      <point x="610" y="268" type="line"/>
      <point x="588" y="157"/>
      <point x="523" y="82"/>
      <point x="425" y="82" type="curve" smooth="yes"/>
      <point x="299" y="82"/>
      <point x="243" y="183"/>
      <point x="243" y="355" type="curve" smooth="yes"/>
      <point x="243" y="521"/>
      <point x="288" y="630"/>
      <point x="420" y="630" type="curve" smooth="yes"/>
      <point x="505" y="630"/>
      <point x="550" y="591"/>
      <point x="571" y="544" type="curve"/>
      <point x="629" y="550"/>
      <point x="567" y="621"/>
      <point x="522" y="630" type="curve"/>
      <point x="522" y="495" type="line"/>
      <point x="673" y="495" type="line"/>
      <point x="673" y="636" type="line"/>
      <point x="650" y="656"/>
      <point x="567" y="715"/>
    </contour>
    <contour>
      <point x="357" y="790" type="line"/>
      <point x="357" y="663" type="line"/>
      <point x="367" y="646" type="line"/>
      <point x="367" y="58" type="line"/>
      <point x="357" y="38" type="line"/>
      <point x="357" y="-120" type="line"/>
      <point x="447" y="-120" type="line"/>
      <point x="447" y="38" type="line"/>
      <point x="438" y="61" type="line"/>
      <point x="438" y="652" type="line"/>
      <point x="447" y="670" type="line"/>
      <point x="447" y="790" type="line"/>
    </contour>
  </outline>
</glyph>
<glyph name="cent.alt" format="1">
  <advance width="560"/>
  <outline>
    <contour>
      <point x="349" y="75" type="curve" smooth="yes"/>
      <point x="279" y="75"/>
      <point x="235" y="140"/>
      <point x="235" y="253" type="curve" smooth="yes"/>
      <point x="235" y="364"/>
      <point x="268" y="437"/>
      <point x="331" y="437" type="curve" smooth="yes"/>
      <point x="366" y="437"/>
      <point x="391" y="418"/>
      <point x="402" y="390" type="curve"/>
      <point x="423" y="407"/>
      <point x="418" y="455"/>
      <point x="380" y="456" type="curve"/>
      <point x="380" y="326" type="line"/>
      <point x="528" y="326" type="line"/>
      <point x="528" y="458" type="line"/>
      <point x="506" y="478"/>
      <point x="439" y="523"/>
      <point x="316" y="523" type="curve" smooth="yes"/>
      <point x="143" y="523"/>
      <point x="25" y="421"/>
      <point x="25" y="253" type="curve" smooth="yes"/>
      <point x="25" y="86"/>
      <point x="149" y="-14"/>
      <point x="313" y="-14" type="curve" smooth="yes"/>
      <point x="434" y="-14"/>
      <point x="496" y="48"/>
      <point x="539" y="131" type="curve"/>
      <point x="471" y="177" type="line"/>
      <point x="446" y="133"/>
      <point x="412" y="75"/>
    </contour>
    <contour>
      <point x="360" y="491" type="line"/>
      <point x="360" y="623" type="line"/>
      <point x="270" y="623" type="line"/>
      <point x="270" y="488" type="line"/>
    </contour>
    <contour>
      <point x="270" y="41" type="line"/>
      <point x="270" y="-126" type="line"/>
      <point x="360" y="-126" type="line"/>
      <point x="360" y="43" type="line"/>
    </contour>
  </outline>
</glyph>
<glyph name="circumflex_acute" format="1">
  <advance width="510"/>
  <outline>
    <contour>
      <point x="442" y="807" type="curve" smooth="yes"/>
      <point x="411" y="709" type="line"/>
      <point x="411" y="680" type="line"/>
      <point x="472" y="680" type="line"/>
      <point x="546" y="734" type="line" smooth="yes"/>
      <point x="591" y="764"/>
      <point x="613" y="796"/>
      <point x="613" y="834" type="curve" smooth="yes"/>
      <point x="613" y="871"/>
      <point x="583" y="899"/>
      <point x="539" y="899" type="curve" smooth="yes"/>
      <point x="486" y="899"/>
      <point x="460" y="865"/>
    </contour>
    <component base="circumflex" xOffset="-10"/>
    <contour>
      <point x="234" y="558" type="move" name="_top"/>
    </contour>
  </outline>
</glyph>
<glyph name="circumflex_acute.uc" format="1">
  <advance width="510"/>
  <outline>
    <contour>
      <point x="463" y="971" type="curve" smooth="yes"/>
      <point x="420" y="890" type="line"/>
      <point x="420" y="864" type="line"/>
      <point x="471" y="864" type="line"/>
      <point x="539" y="892" type="line" smooth="yes"/>
      <point x="593" y="913"/>
      <point x="622" y="936"/>
      <point x="622" y="981" type="curve" smooth="yes"/>
      <point x="622" y="1015"/>
      <point x="596" y="1043"/>
      <point x="557" y="1043" type="curve" smooth="yes"/>
      <point x="513" y="1043"/>
      <point x="488" y="1017"/>
    </contour>
    <component base="circumflex.uc"/>
    <contour>
      <point x="245" y="749" type="move" name="_top"/>
    </contour>
  </outline>
</glyph>
<glyph name="circumflex_tilde" format="1">
  <advance width="500"/>
  <outline>
    <contour>
      <point x="333" y="759" type="curve" smooth="yes"/>
      <point x="399" y="759"/>
      <point x="441" y="808"/>
      <point x="459" y="896" type="curve"/>
      <point x="379" y="924" type="line"/>
      <point x="370" y="891"/>
      <point x="358" y="873"/>
      <point x="335" y="873" type="curve" smooth="yes"/>
      <point x="293" y="873"/>
      <point x="265" y="923"/>
      <point x="194" y="923" type="curve" smooth="yes"/>
      <point x="121" y="923"/>
      <point x="88" y="876"/>
      <point x="71" y="786" type="curve"/>
      <point x="151" y="760" type="line"/>
      <point x="159" y="793"/>
      <point x="170" y="810"/>
      <point x="193" y="810" type="curve" smooth="yes"/>
      <point x="228" y="810"/>
      <point x="254" y="759"/>
    </contour>
    <contour>
      <point x="347" y="719" type="line"/>
      <point x="456" y="578" type="line"/>
      <point x="456" y="558" type="line"/>
      <point x="365" y="558" type="line"/>
      <point x="202" y="653" type="line"/>
      <point x="316" y="653" type="line"/>
      <point x="151" y="558" type="line"/>
      <point x="72" y="558" type="line"/>
      <point x="72" y="578" type="line"/>
      <point x="181" y="719" type="line"/>
    </contour>
    <contour>
      <point x="245" y="551" type="move" name="_top"/>
    </contour>
  </outline>
</glyph>
<glyph name="dollar.altprop" format="1">
  <advance width="607"/>
  <outline>
    <contour>
      <point x="300" y="101" type="curve" smooth="yes"/>
      <point x="215" y="101"/>
      <point x="145" y="137"/>
      <point x="111" y="174" type="curve"/>
      <point x="100" y="169"/>
      <point x="132" y="106"/>
      <point x="168" y="108" type="curve"/>
      <point x="168" y="219" type="line"/>
      <point x="30" y="219" type="line"/>
      <point x="30" y="86" type="line"/>
      <point x="76" y="50"/>
      <point x="170" y="12"/>
      <point x="304" y="12" type="curve" smooth="yes"/>
      <point x="470" y="12"/>
      <point x="575" y="89"/>
      <point x="575" y="237" type="curve" smooth="yes"/>
      <point x="575" y="366"/>
      <point x="474" y="417"/>
      <point x="328" y="459" type="curve" smooth="yes"/>
      <point x="257" y="478"/>
      <point x="195" y="490"/>
      <point x="195" y="546" type="curve" smooth="yes"/>
      <point x="195" y="588"/>
      <point x="233" y="610"/>
      <point x="308" y="610" type="curve" smooth="yes"/>
      <point x="379" y="610"/>
      <point x="430" y="592"/>
      <point x="465" y="557" type="curve"/>
      <point x="476" y="571"/>
      <point x="457" y="621"/>
      <point x="421" y="618" type="curve"/>
      <point x="421" y="518" type="line"/>
      <point x="549" y="518" type="line"/>
      <point x="549" y="637" type="line"/>
      <point x="513" y="666"/>
      <point x="419" y="698"/>
      <point x="309" y="698" type="curve" smooth="yes"/>
      <point x="151" y="698"/>
      <point x="44" y="627"/>
      <point x="44" y="498" type="curve" smooth="yes"/>
      <point x="44" y="370"/>
      <point x="143" y="316"/>
      <point x="269" y="279" type="curve" smooth="yes"/>
      <point x="363" y="252"/>
      <point x="417" y="238"/>
      <point x="417" y="176" type="curve" smooth="yes"/>
      <point x="417" y="122"/>
      <point x="375" y="101"/>
    </contour>
    <contour>
      <point x="352" y="655" type="line"/>
      <point x="352" y="790" type="line"/>
      <point x="255" y="790" type="line"/>
      <point x="255" y="649" type="line"/>
    </contour>
    <contour>
      <point x="255" y="54" type="line"/>
      <point x="255" y="-120" type="line"/>
      <point x="352" y="-120" type="line"/>
      <point x="352" y="53" type="line"/>
    </contour>
  </outline>
</glyph>
<glyph name="eight.den" format="1">
  <advance width="399"/>
  <outline>
    <contour>
      <point x="200" y="207" type="curve" smooth="yes"/>
      <point x="83" y="207"/>
      <point x="20" y="171"/>
      <point x="20" y="109" type="curve" smooth="yes"/>
      <point x="20" y="41"/>
      <point x="80" y="-6"/>
      <point x="200" y="-6" type="curve" smooth="yes"/>
      <point x="320" y="-6"/>
      <point x="379" y="41"/>
      <point x="379" y="109" type="curve" smooth="yes"/>
      <point x="379" y="171"/>
      <point x="317" y="207"/>
    </contour>
    <contour>
      <point x="200" y="172" type="curve" smooth="yes"/>
      <point x="227" y="172"/>
      <point x="237" y="151"/>
      <point x="237" y="113" type="curve" smooth="yes"/>
      <point x="237" y="74"/>
      <point x="225" y="54"/>
      <point x="200" y="54" type="curve" smooth="yes"/>
      <point x="174" y="54"/>
      <point x="162" y="74"/>
      <point x="162" y="113" type="curve" smooth="yes"/>
      <point x="162" y="151"/>
      <point x="172" y="172"/>
    </contour>
    <contour>
      <point x="200" y="375" type="curve" smooth="yes"/>
      <point x="88" y="375"/>
      <point x="36" y="331"/>
      <point x="36" y="278" type="curve" smooth="yes"/>
      <point x="36" y="222"/>
      <point x="91" y="188"/>
      <point x="200" y="188" type="curve" smooth="yes"/>
      <point x="308" y="188"/>
      <point x="364" y="222"/>
      <point x="364" y="278" type="curve" smooth="yes"/>
      <point x="364" y="331"/>
      <point x="312" y="375"/>
    </contour>
    <contour>
      <point x="200" y="220" type="curve" smooth="yes"/>
      <point x="175" y="220"/>
      <point x="165" y="235"/>
      <point x="165" y="269" type="curve" smooth="yes"/>
      <point x="165" y="298"/>
      <point x="175" y="315"/>
      <point x="200" y="315" type="curve" smooth="yes"/>
      <point x="224" y="315"/>
      <point x="234" y="298"/>
      <point x="234" y="269" type="curve" smooth="yes"/>
      <point x="234" y="235"/>
      <point x="223" y="220"/>
    </contour>
  </outline>
</glyph>
<glyph name="f_f.short" format="1">
  <advance width="773"/>
  <outline>
    <contour>
      <point x="10" y="513" type="line"/>
      <point x="10" y="435" type="line"/>
      <point x="409" y="435" type="line"/>
      <point x="409" y="513" type="line"/>
    </contour>
    <contour>
      <point x="359" y="513" type="line"/>
      <point x="359" y="435" type="line"/>
      <point x="760" y="435" type="line"/>
      <point x="760" y="513" type="line"/>
    </contour>
    <contour>
      <point x="439" y="77" type="line"/>
      <point x="439" y="71"/>
      <point x="418" y="68"/>
      <point x="396" y="68" type="curve" smooth="yes"/>
      <point x="391" y="68" type="line"/>
      <point x="391" y="0" type="line"/>
      <point x="722" y="0" type="line"/>
      <point x="722" y="68" type="line"/>
      <point x="711" y="68" type="line" smooth="yes"/>
      <point x="678" y="68"/>
      <point x="644" y="71"/>
      <point x="644" y="77" type="curve" smooth="yes"/>
      <point x="644" y="573" type="line" smooth="yes"/>
      <point x="644" y="641"/>
      <point x="665" y="665"/>
      <point x="707" y="665" type="curve" smooth="yes"/>
      <point x="734" y="665"/>
      <point x="759" y="655"/>
      <point x="767" y="651" type="curve"/>
      <point x="767" y="736" type="line"/>
      <point x="753" y="741"/>
      <point x="717" y="748"/>
      <point x="675" y="748" type="curve" smooth="yes"/>
      <point x="546" y="748"/>
      <point x="439" y="697"/>
      <point x="439" y="546" type="curve"/>
    </contour>
    <contour>
      <point x="294" y="77" type="curve"/>
      <point x="294" y="574" type="line" smooth="yes"/>
      <point x="294" y="636"/>
      <point x="317" y="653"/>
      <point x="352" y="653" type="curve" smooth="yes"/>
      <point x="371" y="653"/>
      <point x="391" y="646"/>
      <point x="397" y="643" type="curve"/>
      <point x="397" y="725" type="line"/>
      <point x="383" y="731"/>
      <point x="349" y="737"/>
      <point x="310" y="737" type="curve" smooth="yes"/>
      <point x="192" y="737"/>
      <point x="89" y="686"/>
      <point x="89" y="535" type="curve" smooth="yes"/>
      <point x="89" y="100" type="line" smooth="yes"/>
      <point x="89" y="78"/>
      <point x="69" y="68"/>
      <point x="35" y="68" type="curve" smooth="yes"/>
      <point x="23" y="68" type="line"/>
      <point x="23" y="0" type="line"/>
      <point x="343" y="0" type="line"/>
      <point x="343" y="68" type="line"/>
      <point x="340" y="68" type="line" smooth="yes"/>
      <point x="312" y="68"/>
      <point x="294" y="71"/>
    </contour>
  </outline>
</glyph>
<glyph name="f_f_k" format="1">
  <advance width="1425"/>
  <outline>
    <contour>
      <point x="1410" y="0" type="line"/>
      <point x="1410" y="68" type="line"/>
      <point x="1408" y="68" type="line"/>
      <point x="1379" y="68"/>
      <point x="1354" y="77"/>
      <point x="1336" y="101" type="curve" smooth="yes"/>
      <point x="1162" y="359" type="line"/>
      <point x="1119" y="269" type="line"/>
      <point x="1271" y="404" type="line" smooth="yes"/>
      <point x="1297" y="427"/>
      <point x="1329" y="444"/>
      <point x="1368" y="444" type="curve"/>
      <point x="1370" y="444" type="line"/>
      <point x="1370" y="513" type="line"/>
      <point x="1108" y="513" type="line"/>
      <point x="1108" y="444" type="line"/>
      <point x="1112" y="444" type="line"/>
      <point x="1137" y="444"/>
      <point x="1182" y="441"/>
      <point x="1182" y="426" type="curve"/>
      <point x="1016" y="279" type="line"/>
      <point x="1016" y="252" type="line"/>
      <point x="1125" y="77" type="line"/>
      <point x="1125" y="71"/>
      <point x="1101" y="68"/>
      <point x="1086" y="68" type="curve"/>
      <point x="1083" y="68" type="line"/>
      <point x="1083" y="0" type="line"/>
    </contour>
    <contour>
      <point x="10" y="513" type="line"/>
      <point x="10" y="435" type="line"/>
      <point x="409" y="435" type="line"/>
      <point x="409" y="513" type="line"/>
    </contour>
    <contour>
      <point x="359" y="513" type="line"/>
      <point x="359" y="435" type="line"/>
      <point x="731" y="435" type="line"/>
      <point x="731" y="513" type="line"/>
    </contour>
    <contour>
      <point x="742" y="0" type="line"/>
      <point x="1036" y="0" type="line"/>
      <point x="1036" y="68" type="line"/>
      <point x="1033" y="68" type="line" smooth="yes"/>
      <point x="1018" y="68"/>
      <point x="994" y="71"/>
      <point x="994" y="77" type="curve"/>
      <point x="994" y="731" type="line"/>
      <point x="747" y="731" type="line"/>
      <point x="788" y="684" type="line"/>
      <point x="788" y="77" type="line"/>
      <point x="788" y="71"/>
      <point x="764" y="68"/>
      <point x="748" y="68" type="curve" smooth="yes"/>
      <point x="742" y="68" type="line"/>
    </contour>
    <contour>
      <point x="294" y="77" type="curve"/>
      <point x="294" y="574" type="line" smooth="yes"/>
      <point x="294" y="636"/>
      <point x="317" y="653"/>
      <point x="352" y="653" type="curve" smooth="yes"/>
      <point x="371" y="653"/>
      <point x="391" y="646"/>
      <point x="397" y="643" type="curve"/>
      <point x="397" y="725" type="line"/>
      <point x="383" y="731"/>
      <point x="349" y="737"/>
      <point x="310" y="737" type="curve" smooth="yes"/>
      <point x="192" y="737"/>
      <point x="89" y="686"/>
      <point x="89" y="535" type="curve" smooth="yes"/>
      <point x="89" y="100" type="line"/>
      <point x="89" y="78"/>
      <point x="69" y="68"/>
      <point x="35" y="68" type="curve" smooth="yes"/>
      <point x="23" y="68" type="line"/>
      <point x="23" y="0" type="line"/>
      <point x="343" y="0" type="line"/>
      <point x="343" y="68" type="line"/>
      <point x="340" y="68" type="line" smooth="yes"/>
      <point x="312" y="68"/>
      <point x="294" y="71"/>
    </contour>
    <contour>
      <point x="644" y="77" type="curve"/>
      <point x="644" y="574" type="line" smooth="yes"/>
      <point x="644" y="641"/>
      <point x="672" y="664"/>
      <point x="721" y="664" type="curve" smooth="yes"/>
      <point x="771" y="664"/>
      <point x="805" y="639"/>
      <point x="830" y="579" type="curve"/>
      <point x="909" y="695" type="line"/>
      <point x="862" y="724"/>
      <point x="798" y="748"/>
      <point x="702" y="748" type="curve" smooth="yes"/>
      <point x="562" y="748"/>
      <point x="439" y="697"/>
      <point x="439" y="546" type="curve"/>
      <point x="439" y="77" type="line"/>
      <point x="439" y="71"/>
      <point x="422" y="68"/>
      <point x="395" y="68" type="curve" smooth="yes"/>
      <point x="391" y="68" type="line"/>
      <point x="391" y="0" type="line"/>
      <point x="694" y="0" type="line"/>
      <point x="694" y="68" type="line"/>
      <point x="688" y="68" type="line" smooth="yes"/>
      <point x="664" y="68"/>
      <point x="644" y="71"/>
    </contour>
  </outline>
</glyph>
<glyph name="f_h" format="1">
  <advance width="1044"/>
  <outline>
    <contour>
      <point x="10" y="513" type="line"/>
      <point x="10" y="435" type="line"/>
      <point x="382" y="435" type="line"/>
      <point x="382" y="513" type="line"/>
    </contour>
    <contour>
      <point x="1033" y="0" type="line"/>
      <point x="1033" y="68" type="line"/>
      <point x="1031" y="68" type="line" smooth="yes"/>
      <point x="1006" y="68"/>
      <point x="987" y="75"/>
      <point x="987" y="97" type="curve" smooth="yes"/>
      <point x="987" y="347" type="line" smooth="yes"/>
      <point x="987" y="462"/>
      <point x="918" y="523"/>
      <point x="814" y="523" type="curve" smooth="yes"/>
      <point x="722" y="523"/>
      <point x="657" y="474"/>
      <point x="615" y="390" type="curve"/>
      <point x="634" y="324" type="line"/>
      <point x="659" y="380"/>
      <point x="691" y="413"/>
      <point x="732" y="413" type="curve" smooth="yes"/>
      <point x="769" y="413"/>
      <point x="781" y="392"/>
      <point x="781" y="348" type="curve" smooth="yes"/>
      <point x="781" y="77" type="line" smooth="yes"/>
      <point x="781" y="71"/>
      <point x="757" y="68"/>
      <point x="741" y="68" type="curve" smooth="yes"/>
      <point x="739" y="68" type="line"/>
      <point x="739" y="0" type="line"/>
    </contour>
    <contour>
      <point x="686" y="0" type="line"/>
      <point x="686" y="68" type="line"/>
      <point x="683" y="68" type="line" smooth="yes"/>
      <point x="668" y="68"/>
      <point x="645" y="71"/>
      <point x="645" y="77" type="curve"/>
      <point x="645" y="731" type="line"/>
      <point x="394" y="731" type="line"/>
      <point x="439" y="679" type="line"/>
      <point x="439" y="77" type="line"/>
      <point x="439" y="71"/>
      <point x="415" y="68"/>
      <point x="400" y="68" type="curve" smooth="yes"/>
      <point x="394" y="68" type="line"/>
      <point x="394" y="0" type="line"/>
    </contour>
    <contour>
      <point x="346" y="0" type="line"/>
      <point x="346" y="68" type="line"/>
      <point x="341" y="68" type="line" smooth="yes"/>
      <point x="312" y="68"/>
      <point x="294" y="71"/>
      <point x="294" y="77" type="curve"/>
      <point x="294" y="574" type="line" smooth="yes"/>
      <point x="294" y="641"/>
      <point x="322" y="664"/>
      <point x="372" y="664" type="curve" smooth="yes"/>
      <point x="421" y="664"/>
      <point x="455" y="639"/>
      <point x="480" y="579" type="curve"/>
      <point x="559" y="695" type="line"/>
      <point x="513" y="724"/>
      <point x="449" y="748"/>
      <point x="353" y="748" type="curve" smooth="yes"/>
      <point x="213" y="748"/>
      <point x="89" y="697"/>
      <point x="89" y="546" type="curve" smooth="yes"/>
      <point x="89" y="100" type="line" smooth="yes"/>
      <point x="89" y="78"/>
      <point x="69" y="68"/>
      <point x="35" y="68" type="curve" smooth="yes"/>
      <point x="23" y="68" type="line"/>
      <point x="23" y="0" type="line"/>
    </contour>
  </outline>
</glyph>
<glyph name="f_i" format="1">
  <advance width="706"/>
  <outline>
    <contour>
      <point x="10" y="513" type="line"/>
      <point x="10" y="435" type="line"/>
      <point x="430" y="435" type="line"/>
      <point x="430" y="513" type="line"/>
    </contour>
    <contour>
      <point x="539" y="572" type="curve" smooth="yes"/>
      <point x="607" y="572"/>
      <point x="648" y="605"/>
      <point x="648" y="660" type="curve" smooth="yes"/>
      <point x="648" y="715"/>
      <point x="607" y="748"/>
      <point x="539" y="748" type="curve" smooth="yes"/>
      <point x="472" y="748"/>
      <point x="431" y="715"/>
      <point x="431" y="660" type="curve" smooth="yes"/>
      <point x="431" y="604"/>
      <point x="472" y="572"/>
    </contour>
    <contour>
      <point x="439" y="77" type="line"/>
      <point x="439" y="71"/>
      <point x="415" y="68"/>
      <point x="400" y="68" type="curve" smooth="yes"/>
      <point x="394" y="68" type="line"/>
      <point x="394" y="0" type="line"/>
      <point x="691" y="0" type="line"/>
      <point x="691" y="68" type="line"/>
      <point x="690" y="68" type="line" smooth="yes"/>
      <point x="665" y="68"/>
      <point x="645" y="75"/>
      <point x="645" y="97" type="curve" smooth="yes"/>
      <point x="645" y="513" type="line"/>
      <point x="392" y="513" type="line"/>
      <point x="392" y="435" type="line"/>
      <point x="400" y="435" type="line" smooth="yes"/>
      <point x="429" y="435"/>
      <point x="439" y="423"/>
      <point x="439" y="404" type="curve"/>
    </contour>
    <contour>
      <point x="346" y="0" type="line"/>
      <point x="346" y="68" type="line"/>
      <point x="341" y="68" type="line" smooth="yes"/>
      <point x="312" y="68"/>
      <point x="294" y="71"/>
      <point x="294" y="77" type="curve"/>
      <point x="294" y="585" type="line" smooth="yes"/>
      <point x="294" y="647"/>
      <point x="314" y="664"/>
      <point x="348" y="664" type="curve" smooth="yes"/>
      <point x="365" y="664"/>
      <point x="385" y="658"/>
      <point x="391" y="655" type="curve"/>
      <point x="391" y="736" type="line"/>
      <point x="377" y="742"/>
      <point x="344" y="748"/>
      <point x="306" y="748" type="curve" smooth="yes"/>
      <point x="189" y="748"/>
      <point x="89" y="697"/>
      <point x="89" y="546" type="curve" smooth="yes"/>
      <point x="89" y="100" type="line" smooth="yes"/>
      <point x="89" y="78"/>
      <point x="69" y="68"/>
      <point x="35" y="68" type="curve" smooth="yes"/>
      <point x="23" y="68" type="line"/>
      <point x="23" y="0" type="line"/>
    </contour>
  </outline>
</glyph>
<glyph name="four.old" format="1">
  <advance width="560"/>
  <outline>
    <contour>
      <point x="25" y="14" type="line"/>
      <point x="553" y="14" type="line"/>
      <point x="553" y="147" type="line"/>
      <point x="99" y="147" type="line"/>
      <point x="76" y="74" type="line"/>
      <point x="320" y="479" type="line"/>
      <point x="332" y="548" type="line"/>
      <point x="268" y="548" type="line"/>
      <point x="25" y="149" type="line"/>
    </contour>
    <contour>
      <point x="480" y="-145" type="line"/>
      <point x="480" y="548" type="line"/>
      <point x="299" y="548" type="line"/>
      <point x="287" y="466" type="line"/>
      <point x="287" y="-145" type="line"/>
    </contour>
  </outline>
</glyph>
<glyph name="parenleft.uc" format="1">
  <advance width="380"/>
  <outline>
    <contour>
      <point x="210" y="358" type="curve" smooth="yes"/>
      <point x="210" y="158"/>
      <point x="293" y="36"/>
      <point x="366" y="-33" type="curve"/>
      <point x="366" y="-36" type="line"/>
      <point x="244" y="-36" type="line"/>
      <point x="133" y="30"/>
      <point x="35" y="161"/>
      <point x="35" y="358" type="curve" smooth="yes"/>
      <point x="35" y="545"/>
      <point x="133" y="676"/>
      <point x="244" y="743" type="curve"/>
      <point x="366" y="743" type="line"/>
      <point x="366" y="740" type="line"/>
      <point x="293" y="670"/>
      <point x="210" y="548"/>
    </contour>
  </outline>
</glyph>
<glyph name="plus.sub" format="1">
  <advance width="408"/>
  <outline>
    <contour>
      <point x="157" y="235" type="line"/>
      <point x="157" y="-75" type="line"/>
      <point x="250" y="-75" type="line"/>
      <point x="250" y="235" type="line"/>
    </contour>
    <contour>
      <point x="354" y="123" type="line"/>
      <point x="54" y="123" type="line"/>
      <point x="54" y="37" type="line"/>
      <point x="354" y="37" type="line"/>
    </contour>
  </outline>
</glyph>
<glyph name="rupeeIndian" format="1">
  <advance width="560"/>
  <outline>
    <contour>
      <point x="51" y="519" type="line"/>
      <point x="51" y="432" type="line"/>
      <point x="540" y="432" type="line"/>
      <point x="540" y="519" type="line"/>
    </contour>
    <contour>
      <point x="111" y="262" type="line"/>
      <point x="145" y="262" type="line" smooth="yes"/>
      <point x="333" y="262"/>
      <point x="447" y="344"/>
      <point x="447" y="459" type="curve" smooth="yes"/>
      <point x="447" y="568"/>
      <point x="387" y="638"/>
      <point x="212" y="648" type="curve"/>
      <point x="190" y="683"/>
      <point x="99" y="691"/>
      <point x="184" y="625" type="curve"/>
      <point x="540" y="625" type="line"/>
      <point x="540" y="710" type="line"/>
      <point x="51" y="710" type="line"/>
      <point x="51" y="621" type="line"/>
      <point x="111" y="621" type="line" smooth="yes"/>
      <point x="223" y="621"/>
      <point x="262" y="566"/>
      <point x="262" y="476" type="curve" smooth="yes"/>
      <point x="262" y="387"/>
      <point x="226" y="330"/>
      <point x="101" y="330" type="curve" smooth="yes"/>
      <point x="51" y="330" type="line"/>
      <point x="51" y="257" type="line"/>
      <point x="283" y="0" type="line"/>
      <point x="517" y="0" type="line"/>
      <point x="517" y="72" type="line"/>
      <point x="505" y="72" type="line" smooth="yes"/>
      <point x="476" y="72"/>
      <point x="459" y="79"/>
      <point x="439" y="100" type="curve" smooth="yes"/>
      <point x="241" y="305" type="line"/>
    </contour>
  </outline>
</glyph>
<glyph name="schwa" format="1">
  <advance width="597"/>
  <outline>
    <contour>
      <point x="278" y="523" type="curve" smooth="yes"/>
      <point x="157" y="523"/>
      <point x="82" y="468"/>
      <point x="39" y="391" type="curve"/>
      <point x="108" y="343" type="line"/>
      <point x="136" y="386"/>
      <point x="179" y="433"/>
      <point x="247" y="433" type="curve" smooth="yes"/>
      <point x="332" y="433"/>
      <point x="365" y="371"/>
      <point x="365" y="256" type="curve" smooth="yes"/>
      <point x="365" y="123"/>
      <point x="337" y="72"/>
      <point x="292" y="72" type="curve" smooth="yes"/>
      <point x="245" y="72"/>
      <point x="224" y="108"/>
      <point x="222" y="241" type="curve"/>
      <point x="198" y="207" type="line"/>
      <point x="471" y="207" type="line"/>
      <point x="470" y="286" type="line"/>
      <point x="29" y="286" type="line"/>
      <point x="30" y="86"/>
      <point x="123" y="-14"/>
      <point x="295" y="-14" type="curve" smooth="yes"/>
      <point x="456" y="-14"/>
      <point x="573" y="93"/>
      <point x="573" y="256" type="curve" smooth="yes"/>
      <point x="573" y="421"/>
      <point x="461" y="523"/>
    </contour>
  </outline>
</glyph>
<glyph name="six.den" format="1">
  <advance width="388"/>
  <outline>
    <contour>
      <point x="339" y="327" type="line"/>
      <point x="219" y="317"/>
      <point x="156" y="269"/>
      <point x="156" y="160" type="curve" smooth="yes"/>
      <point x="156" y="68"/>
      <point x="171" y="48"/>
      <point x="196" y="48" type="curve" smooth="yes"/>
      <point x="221" y="48"/>
      <point x="230" y="70"/>
      <point x="230" y="128" type="curve" smooth="yes"/>
      <point x="230" y="171"/>
      <point x="222" y="203"/>
      <point x="194" y="203" type="curve" smooth="yes"/>
      <point x="171" y="203"/>
      <point x="153" y="184"/>
      <point x="140" y="157" type="curve"/>
      <point x="139" y="197" type="line"/>
      <point x="148" y="223"/>
      <point x="182" y="254"/>
      <point x="239" y="254" type="curve" smooth="yes"/>
      <point x="315" y="254"/>
      <point x="366" y="212"/>
      <point x="366" y="134" type="curve" smooth="yes"/>
      <point x="366" y="44"/>
      <point x="299" y="-6"/>
      <point x="198" y="-6" type="curve" smooth="yes"/>
      <point x="86" y="-6"/>
      <point x="22" y="49"/>
      <point x="22" y="158" type="curve" smooth="yes"/>
      <point x="22" y="286"/>
      <point x="130" y="375"/>
      <point x="331" y="381" type="curve"/>
    </contour>
  </outline>
</glyph>
<glyph name="six.old" format="1">
  <advance width="560"/>
  <outline>
    <contour>
      <point x="477" y="658" type="line"/>
      <point x="318" y="621"/>
      <point x="212" y="495"/>
      <point x="212" y="289" type="curve" smooth="yes"/>
      <point x="212" y="123"/>
      <point x="239" y="73"/>
      <point x="285" y="73" type="curve" smooth="yes"/>
      <point x="326" y="73"/>
      <point x="346" y="124"/>
      <point x="346" y="229" type="curve" smooth="yes"/>
      <point x="346" y="314"/>
      <point x="332" y="370"/>
      <point x="283" y="370" type="curve" smooth="yes"/>
      <point x="238" y="370"/>
      <point x="207" y="330"/>
      <point x="182" y="278" type="curve"/>
      <point x="175" y="347" type="line"/>
      <point x="194" y="397"/>
      <point x="243" y="453"/>
      <point x="337" y="453" type="curve" smooth="yes"/>
      <point x="458" y="453"/>
      <point x="541" y="375"/>
      <point x="541" y="236" type="curve" smooth="yes"/>
      <point x="541" y="83"/>
      <point x="440" y="-10"/>
      <point x="289" y="-10" type="curve" smooth="yes"/>
      <point x="129" y="-10"/>
      <point x="21" y="85"/>
      <point x="21" y="295" type="curve" smooth="yes"/>
      <point x="21" y="513"/>
      <point x="200" y="697"/>
      <point x="464" y="740" type="curve"/>
    </contour>
  </outline>
</glyph>
<glyph name="sterling.alt" format="1">
  <advance width="560"/>
  <outline>
    <contour>
      <point x="24" y="406" type="line"/>
      <point x="24" y="309" type="line"/>
      <point x="434" y="309" type="line"/>
      <point x="434" y="406" type="line"/>
    </contour>
    <contour>
      <point x="22" y="0" type="line"/>
      <point x="529" y="0" type="line"/>
      <point x="529" y="244" type="line"/>
      <point x="446" y="244" type="line"/>
      <point x="437" y="181" type="line" smooth="yes"/>
      <point x="432" y="145"/>
      <point x="402" y="138"/>
      <point x="324" y="138" type="curve"/>
      <point x="177" y="138" type="line"/>
      <point x="129" y="87" type="line"/>
      <point x="258" y="126"/>
      <point x="294" y="198"/>
      <point x="294" y="273" type="curve" smooth="yes"/>
      <point x="294" y="376"/>
      <point x="245" y="453"/>
      <point x="245" y="540" type="curve" smooth="yes"/>
      <point x="245" y="597"/>
      <point x="273" y="630"/>
      <point x="321" y="630" type="curve" smooth="yes"/>
      <point x="353" y="630"/>
      <point x="374" y="617"/>
      <point x="390" y="594" type="curve"/>
      <point x="412" y="602"/>
      <point x="404" y="632"/>
      <point x="365" y="632" type="curve"/>
      <point x="365" y="525" type="line"/>
      <point x="514" y="525" type="line"/>
      <point x="514" y="662" type="line"/>
      <point x="489" y="684"/>
      <point x="430" y="720"/>
      <point x="310" y="720" type="curve" smooth="yes"/>
      <point x="148" y="720"/>
      <point x="56" y="634"/>
      <point x="56" y="527" type="curve" smooth="yes"/>
      <point x="56" y="401"/>
      <point x="146" y="345"/>
      <point x="146" y="240" type="curve" smooth="yes"/>
      <point x="146" y="180"/>
      <point x="94" y="138"/>
      <point x="22" y="117" type="curve"/>
    </contour>
  </outline>
</glyph>
